{"title":"Return of Hanuman (2007) Telugu Movie 720p WEB-DL RDLinks Exclus","uid":12187787,"size":1015356973,"categoryP":"video","categoryS":"movies","magnet":"?xt=urn:btih:dd1a7e038f0d513ccbc612baf3ece1774ccc6c52&amp;dn=Return+of+Hanuman+%282007%29+Telugu+Movie+720p+WEB-DL+RDLinks+Exclus&amp;tr=udp%3A%2F%2Ftracker.openbittorrent.com%3A80&amp;tr=udp%3A%2F%2Fopen.demonii.com%3A1337&amp;tr=udp%3A%2F%2Ftracker.coppersurfer.tk%3A6969&amp;tr=udp%3A%2F%2Fexodus.desync.com%3A6969","seeders":0,"leechers":1,"uploader":"RDLinks","files":2,"time":1438600756,"description":"[CENTER]\n[img]http://i.imgur.com/Aa3RU3c.jpg[/img]\n\n[img]http://i.imgur.com/wzAraWw.jpg[/img]\n\n[quote]General\n\nFormat : MPEG-4\nFormat profile : Base Media\nCodec ID : isom\nFile size : 968 MiB\nDuration : 1h 40mn\nOverall bit rate mode : Variable\nOverall bit rate : 1 342 Kbps\n\nVideo\nID : 1\nFormat : AVC\nFormat/Info : Advanced Video Codec\nFormat profile : &lt;a class=&quot;__cf_email__&quot; href=&quot;/cdn-cgi/l/email-protection&quot; data-cfemail=&quot;6f270608072f235c415e&quot;&gt;[email&amp;#160;protected]&lt;/a&gt;&lt;script data-cfhash='f9e31' type=&quot;text/javascript&quot;&gt;\n/* &lt;![CDATA[ */!function(){try{var t=&quot;currentScript&quot;in document?document.currentScript:function(){for(var t=document.getElementsByTagName(&quot;script&quot;),e=t.length;e--;)if(t[e].getAttribute(&quot;data-cfhash&quot;))return t[e]}();if(t&amp;&amp;t.previousSibling){var e,r,n,i,c=t.previousSibling,a=c.getAttribute(&quot;data-cfemail&quot;);if(a){for(e=&quot;&quot;,r=parseInt(a.substr(0,2),16),n=2;a.length-n;n+=2)i=parseInt(a.substr(n,2),16)^r,e+=String.fromCharCode(i);e=document.createTextNode(e),c.parentNode.replaceChild(e,c)}t.parentNode.removeChild(t);}}catch(u){}}()/* ]]&gt; */&lt;/script&gt;\nFormat settings, CABAC : Yes\nFormat settings, ReFrames : 1 frame\nCodec ID : avc1\nCodec ID/Info : Advanced Video Coding\nDuration : 1h 40mn\nBit rate : 1 147 Kbps\nMaximum bit rate : 10.1 Mbps\nWidth : 1 280 pixels\nHeight : 720 pixels\nDisplay aspect ratio : 16:9\nFrame rate mode : Constant\nFrame rate : 25.000 fps\nColor space : YUV\nChroma subsampling : 4:2:0\nBit depth : 8 bits\nScan type : Progressive\nBits/(Pixel*Frame) : 0.050\nStream size : 828 MiB (86%)\nTitle : RDLinks.com\n\nAudio\nID : 2\nFormat : AAC\nFormat/Info : Advanced Audio Codec\nFormat profile : LC\nCodec ID : 67\nDuration : 1h 40mn\nBit rate mode : Variable\nBit rate : 192 Kbps\nMaximum bit rate : 202 Kbps\nChannel(s) : 2 channels\nChannel positions : Front: L R\nSampling rate : 44.1 KHz\nCompression mode : Lossy\nStream size : 139 MiB (14%)\nTitle : RDLinks.com\n\n[/quote]\n[img]http://i.imgur.com/BQDB4yA.png[/img]\n[img]http://i.imgur.com/AkCVpcr.png[/img]\n[img]http://i.imgur.com/KvBsbAa.png[/img]\n[img]http://i.imgur.com/PkGWYCv.png[/img]\n[img]http://i.imgur.com/DXfnVNi.png[/img]\n[img]http://i.imgur.com/HsC2KQU.png[/img]\n[img]http://i.imgur.com/hSpCf0g.png[/img]\n[img]http://i.imgur.com/s0otWdT.png[/img]\n[img]http://i.imgur.com/CA1O4Gm.png[/img]\n[img]http://i.imgur.com/59varFb.png[/img]\n\n\n[/CENTER]","torrent":{"xt":"urn:btih:dd1a7e038f0d513ccbc612baf3ece1774ccc6c52","amp;dn":"Return+of+Hanuman+%282007%29+Telugu+Movie+720p+WEB-DL+RDLinks+Exclus","amp;tr":["udp%3A%2F%2Ftracker.openbittorrent.com%3A80","udp%3A%2F%2Fopen.demonii.com%3A1337","udp%3A%2F%2Ftracker.coppersurfer.tk%3A6969","udp%3A%2F%2Fexodus.desync.com%3A6969"],"infoHash":"dd1a7e038f0d513ccbc612baf3ece1774ccc6c52","infoHashBuffer":{"type":"Buffer","data":[221,26,126,3,143,13,81,60,203,198,18,186,243,236,225,119,76,204,108,82]},"announce":[],"urlList":[]}}